<svg width="36" height="42" viewBox="0 0 36 42" fill="none" xmlns="http://www.w3.org/2000/svg">
<path d="M8.74999 18.8958C9.30253 18.8958 9.83243 18.6763 10.2231 18.2856C10.6138 17.8949 10.8333 17.365 10.8333 16.8125C10.8333 16.2599 10.6138 15.73 10.2231 15.3393C9.83243 14.9486 9.30253 14.7291 8.74999 14.7291C8.19746 14.7291 7.66755 14.9486 7.27685 15.3393C6.88615 15.73 6.66666 16.2599 6.66666 16.8125C6.66666 17.365 6.88615 17.8949 7.27685 18.2856C7.66755 18.6763 8.19746 18.8958 8.74999 18.8958ZM19.1667 23.0583C19.1667 23.6108 18.9472 24.1407 18.5565 24.5314C18.1658 24.9221 17.6359 25.1416 17.0833 25.1416C16.5308 25.1416 16.0009 24.9221 15.6102 24.5314C15.2195 24.1407 15 23.6108 15 23.0583C15 22.5058 15.2195 21.9759 15.6102 21.5852C16.0009 21.1945 16.5308 20.975 17.0833 20.975C17.6359 20.975 18.1658 21.1945 18.5565 21.5852C18.9472 21.9759 19.1667 22.5058 19.1667 23.0583ZM8.74999 31.3875C9.30253 31.3875 9.83243 31.168 10.2231 30.7773C10.6138 30.3866 10.8333 29.8567 10.8333 29.3041C10.8333 28.7516 10.6138 28.2217 10.2231 27.831C9.83243 27.4403 9.30253 27.2208 8.74999 27.2208C8.19746 27.2208 7.66755 27.4403 7.27685 27.831C6.88615 28.2217 6.66666 28.7516 6.66666 29.3041C6.66666 29.8567 6.88615 30.3866 7.27685 30.7773C7.66755 31.168 8.19746 31.3875 8.74999 31.3875ZM0.41666 5.7083C0.41666 2.58955 2.97916 -0.135453 6.29166 0.19163C17.0779 1.26072 27.0708 6.33671 34.2958 14.4166C36.525 16.902 35.8312 20.5916 33.2979 22.427C30.0021 24.8187 25.0896 28.3791 22.2917 30.4125C22.2875 31.3229 22.2875 31.9145 22.2896 32.6875V33.9958C22.2899 34.5287 22.1733 35.0552 21.9482 35.5382C21.723 36.0213 21.3947 36.449 20.9863 36.7915C20.5779 37.1339 20.0995 37.3826 19.5846 37.5201C19.0697 37.6577 18.531 37.6806 18.0062 37.5875C17.5812 39.3083 16.0646 40.7687 13.9562 40.7687C12.4979 40.7687 11.3271 40.0708 10.6042 39.0708L7.84374 41.0645C4.74374 43.302 0.406243 41.0875 0.408326 37.2604L0.41666 5.71038V5.7083ZM5.98541 3.30205C4.71666 3.17705 3.53958 4.22496 3.53958 5.7083V6.79163C14.4854 7.25205 24.1875 12.5187 30.5917 20.5291L31.4646 19.8958C32.6687 19.0208 32.8229 17.452 31.9687 16.5C25.2647 9.00404 15.9929 4.2953 5.98541 3.30413V3.30205ZM3.53333 37.2604C3.53333 38.5354 4.97916 39.275 6.01249 38.527L10.4458 35.3312C10.6794 35.1632 10.9549 35.0629 11.2418 35.0414C11.5288 35.02 11.8161 35.0782 12.072 35.2096C12.328 35.341 12.5427 35.5406 12.6925 35.7863C12.8423 36.032 12.9213 36.3143 12.9208 36.602C12.9208 37.1645 13.3562 37.6437 13.9562 37.6437C14.0936 37.6451 14.2299 37.6191 14.3571 37.5673C14.4844 37.5155 14.6 37.4389 14.6974 37.342C14.7947 37.245 14.8718 37.1297 14.9241 37.0026C14.9764 36.8756 15.0029 36.7394 15.0021 36.602V33.9937C15.0021 33.5793 15.1667 33.1819 15.4597 32.8889C15.7527 32.5958 16.1502 32.4312 16.5646 32.4312C16.979 32.4312 17.3764 32.5958 17.6694 32.8889C17.9625 33.1819 18.1271 33.5793 18.1271 33.9937C18.1271 34.2854 18.3583 34.5145 18.6437 34.5145C18.7819 34.5145 18.9144 34.4597 19.012 34.362C19.1097 34.2643 19.1646 34.1318 19.1646 33.9937V32.6979C19.1625 31.7187 19.1604 31.0145 19.175 29.5958C19.1769 29.3518 19.236 29.1117 19.3474 28.8946C19.4588 28.6775 19.6195 28.4896 19.8167 28.3458C21.6958 26.9791 25.0167 24.5708 28.0583 22.3666C25.0879 18.6713 21.3652 15.6504 17.1374 13.5046C12.9097 11.3587 8.27371 10.1371 3.53749 9.9208L3.53333 37.2604Z" fill="#F1F1F1" fill-opacity="0.95"/>
</svg>
